HIERARCHY
ROOT Hips
{
	OFFSET -0.001795 -0.223333 0.028219
	CHANNELS 6 Xposition Yposition Zposition Zrotation Yrotation Xrotation 
	JOINT LeftUpLeg
	{
		OFFSET 0.069520 -0.091406 -0.006815
		CHANNELS 3 Zrotation Yrotation Xrotation
		JOINT LeftLeg
		{
			OFFSET 0.034277 -0.375199 -0.004496
			CHANNELS 3 Zrotation Yrotation Xrotation
			JOINT LeftFoot
			{
				OFFSET -0.013596 -0.397961 -0.043693
				CHANNELS 3 Zrotation Yrotation Xrotation
				JOINT LeftToe
				{
					OFFSET 0.026358 -0.055791 0.119288
					CHANNELS 3 Zrotation Yrotation Xrotation
					End Site
					{
						OFFSET 0.000000 0.000000 0.000000
					}
				}
			}
		}
	}
	JOINT RightUpLeg
	{
		OFFSET -0.067670 -0.090522 -0.004320
		CHANNELS 3 Zrotation Yrotation Xrotation
		JOINT RightLeg
		{
			OFFSET -0.038290 -0.382569 -0.008850
			CHANNELS 3 Zrotation Yrotation Xrotation
			JOINT RightFoot
			{
				OFFSET 0.015774 -0.398415 -0.042312
				CHANNELS 3 Zrotation Yrotation Xrotation
				JOINT RightToe
				{
					OFFSET -0.025372 -0.048144 0.123348
					CHANNELS 3 Zrotation Yrotation Xrotation
					End Site
					{
						OFFSET 0.000000 0.000000 0.000000
					}
				}
			}
		}
	}
	JOINT Spine
	{
		OFFSET -0.002533 0.108963 -0.026696
		CHANNELS 3 Zrotation Yrotation Xrotation
		JOINT Spine1
		{
			OFFSET 0.005487 0.135180 0.001092
			CHANNELS 3 Zrotation Yrotation Xrotation
			JOINT Spine2
			{
				OFFSET 0.001457 0.052922 0.025425
				CHANNELS 3 Zrotation Yrotation Xrotation
				JOINT Neck
				{
					OFFSET -0.002778 0.213870 -0.042857
					CHANNELS 3 Zrotation Yrotation Xrotation
					JOINT Head
					{
						OFFSET 0.005152 0.064970 0.051349
						CHANNELS 3 Zrotation Yrotation Xrotation
						End Site
						{
							OFFSET 0.000000 0.000000 0.000000
						}
					}
				}
				JOINT LeftShoulder
				{
					OFFSET 0.078845 0.121749 -0.034090
					CHANNELS 3 Zrotation Yrotation Xrotation
					JOINT LeftArm
					{
						OFFSET 0.090977 0.030469 -0.008868
						CHANNELS 3 Zrotation Yrotation Xrotation
						JOINT LeftForeArm
						{
							OFFSET 0.259612 -0.012772 -0.027456
							CHANNELS 3 Zrotation Yrotation Xrotation
							JOINT LeftHand
							{
								OFFSET 0.249234 0.008986 -0.001171
								CHANNELS 3 Zrotation Yrotation Xrotation
								End Site
								{
									OFFSET 0.000000 0.000000 0.000000
								}
							}
						}
					}
				}
				JOINT RightShoulder
				{
					OFFSET -0.081759 0.118833 -0.038615
					CHANNELS 3 Zrotation Yrotation Xrotation
					JOINT RightArm
					{
						OFFSET -0.096012 0.032551 -0.009143
						CHANNELS 3 Zrotation Yrotation Xrotation
						JOINT RightForeArm
						{
							OFFSET -0.253742 -0.013329 -0.021401
							CHANNELS 3 Zrotation Yrotation Xrotation
							JOINT RightHand
							{
								OFFSET -0.255298 0.007772 -0.005559
								CHANNELS 3 Zrotation Yrotation Xrotation
								End Site
								{
									OFFSET 0.000000 0.000000 0.000000
								}
							}
						}
					}
				}
			}
		}
	}
}
MOTION
Frames: 13
Frame Time: 0.050000
1.557849 0.874246 1.317295 175.150151 47.161193 169.371222 7.858044 -9.228932 -27.838695 -19.499923 -11.142458 19.936062 48.005428 5.417155 41.472437 0.000000 0.000000 0.000000 -11.479796 -13.262495 18.763714 -57.727537 -21.353683 58.142384 52.296083 22.457620 42.001220 0.000000 0.000000 0.000000 -12.771753 -3.452139 3.931024 7.228967 0.638032 -18.496118 8.117761 16.279301 32.744732 -1.077438 2.465239 -33.822354 0.000000 0.000000 0.000000 -9.934288 6.196943 -67.376568 13.344496 68.572514 11.528506 -31.415070 6.590872 -5.265695 0.000000 0.000000 0.000000 2.768129 -2.368387 30.446263 56.274671 52.357023 39.274887 -27.182453 49.870438 -6.870133 0.000000 0.000000 0.000000 
1.600370 0.896020 1.251151 174.856778 41.556363 167.781681 -0.293295 -4.942221 -21.134977 -14.340013 -11.012417 20.668556 48.807838 -2.387744 33.848816 0.000000 0.000000 0.000000 -6.424436 -8.466208 6.697318 -97.323451 -14.052494 84.546731 65.290931 26.725082 60.937334 0.000000 0.000000 0.000000 -14.658049 -4.312390 7.859034 8.507169 0.601723 -19.763283 5.731940 14.030497 32.701896 0.208838 2.787502 -36.341451 0.000000 0.000000 0.000000 -10.084075 4.877921 -69.785171 2.236780 68.951794 4.575598 -35.900081 3.633395 -4.550781 0.000000 0.000000 0.000000 4.615355 -3.405197 34.933597 58.463135 53.411380 39.304712 -17.820419 42.869286 -4.726637 0.000000 0.000000 0.000000 
1.641754 0.921581 1.187897 177.085958 35.391271 167.058860 -3.787039 -1.369777 -12.754315 -10.226947 -10.065516 18.511742 46.313014 -8.670084 26.484972 0.000000 0.000000 0.000000 -3.293342 -7.318436 -2.581934 -111.354857 -6.759054 92.488328 73.776630 30.316143 67.707767 0.000000 0.000000 0.000000 -13.674739 -4.207498 10.220924 8.966410 -0.070773 -18.743704 4.774496 9.571044 31.008398 -2.251580 0.330989 -35.073046 0.000000 0.000000 0.000000 -10.778297 4.029911 -72.922910 -4.669662 68.596107 0.890934 -42.879236 2.241885 -4.060085 0.000000 0.000000 0.000000 3.536583 -3.272043 36.251528 63.046956 49.884437 40.520366 -12.999722 36.737529 -3.724554 0.000000 0.000000 0.000000 
1.681402 0.941428 1.127756 179.769749 26.337876 167.333585 -4.347877 -0.642981 -5.139236 -7.764897 -9.151399 15.342068 44.931060 -14.443408 18.956716 0.000000 0.000000 0.000000 -0.181496 -8.797898 -11.193255 -105.270385 -12.260193 94.471336 68.123892 31.288600 55.211578 0.000000 0.000000 0.000000 -13.540119 -5.141104 13.825555 11.245148 -0.280322 -21.001309 3.585571 5.376334 32.783367 -1.343262 -0.639564 -37.721454 0.000000 0.000000 0.000000 -6.633486 3.884880 -80.773903 2.390472 71.894818 6.330889 -49.960141 3.944579 -4.951719 0.000000 0.000000 0.000000 5.866346 -8.041683 42.124079 57.648863 50.862482 35.077371 -10.993383 33.117478 -3.231684 0.000000 0.000000 0.000000 
1.717249 0.950847 1.071763 -178.573371 16.187118 167.518035 -5.386290 -1.965764 1.073238 -3.730638 -7.890169 13.748128 49.885677 -20.953223 11.497918 0.000000 0.000000 0.000000 0.826259 -10.939626 -14.087343 -64.760968 -32.676126 74.705141 50.999721 22.641166 16.665032 0.000000 0.000000 0.000000 -11.854459 -5.348216 15.453765 11.395567 -0.311320 -22.517462 3.264783 0.241281 33.336644 -2.892479 -5.919347 -38.193858 0.000000 0.000000 0.000000 0.349911 4.050243 -100.669080 52.474541 70.857751 47.407363 -53.720904 12.344301 -9.039079 0.000000 0.000000 0.000000 3.127361 -12.659639 53.114071 53.881099 57.003522 39.101109 -14.422719 25.075370 -3.533015 0.000000 0.000000 0.000000 
1.749155 0.949912 1.019598 -177.307664 8.007670 168.569289 -2.955576 -3.177553 0.845050 -3.720894 -9.676771 17.169541 63.284007 -24.432214 2.972651 0.000000 0.000000 0.000000 -0.957463 -14.084378 -14.531752 -18.912867 -25.479240 32.460265 51.019520 -2.824753 3.008211 0.000000 0.000000 0.000000 -9.625396 -4.540069 14.682998 10.553106 -1.001817 -22.013803 4.031935 -0.062675 30.121655 -4.258881 -15.015153 -34.253167 0.000000 0.000000 0.000000 12.060376 13.786732 -145.203164 93.634547 25.237395 47.275131 -40.426921 50.532994 -23.067531 0.000000 0.000000 0.000000 -1.070065 -19.671384 74.538872 43.993296 69.694635 43.854796 -19.918889 17.414433 -3.790992 0.000000 0.000000 0.000000 
1.777979 0.942247 0.971674 -176.724503 -3.743651 170.250228 -3.345847 4.590859 -3.717248 29.697061 25.992023 34.818871 -159.843476 24.613474 -27.689314 0.000000 0.000000 0.000000 -6.212307 7.250977 -10.087994 7.992453 10.120104 13.596137 -83.817472 49.950666 21.085027 0.000000 0.000000 0.000000 -4.686646 3.848000 14.104915 8.747234 6.830160 -26.749378 -4.180516 -17.280529 30.605827 -3.347262 18.421516 -31.075640 0.000000 0.000000 0.000000 7.848977 31.051697 149.135283 95.942903 -35.736047 -31.452449 53.505280 22.339380 9.136968 0.000000 0.000000 0.000000 -24.457597 -15.870525 162.089064 -99.772026 32.953719 -37.617387 -23.032916 -13.596767 -1.590915 0.000000 0.000000 0.000000 
1.805060 0.934176 0.932424 -175.011441 -15.421864 169.584558 -4.381154 3.567478 -6.200259 48.988148 29.141055 50.405768 -115.029325 18.550079 8.114760 0.000000 0.000000 0.000000 -4.111375 4.816229 -7.864985 12.152554 11.814949 18.134901 -87.237263 47.090735 30.422171 0.000000 0.000000 0.000000 -1.694259 2.390028 14.590758 6.627913 4.641146 -29.310483 -0.436319 -12.736083 32.490722 -5.341526 5.447647 -36.063542 0.000000 0.000000 0.000000 -17.039415 29.833128 70.644025 -18.578292 -78.831819 11.828478 37.768294 -36.396661 -11.809878 0.000000 0.000000 0.000000 -21.413370 3.598359 -126.258657 -97.248760 -32.353400 36.440588 18.222323 -29.913690 -12.234528 0.000000 0.000000 0.000000 
1.832373 0.935456 0.903792 -175.493762 -27.164500 169.774802 -6.241905 2.075088 -6.978357 46.088677 28.000905 51.927620 -77.674238 -11.531160 14.986289 0.000000 0.000000 0.000000 -3.965598 3.755065 -8.448540 16.139358 12.736972 22.632625 -72.950377 23.527931 40.322381 0.000000 0.000000 0.000000 -1.841457 2.881345 16.012627 6.138942 3.617013 -29.236389 -0.159138 -12.141352 30.572105 -10.478495 1.592598 -33.470202 0.000000 0.000000 0.000000 -26.867859 25.991073 41.216066 -47.198735 -54.383793 15.276642 12.167945 -50.546761 -2.272076 0.000000 0.000000 0.000000 -5.362739 15.535261 -71.712730 -7.486530 -79.621439 0.620338 34.698077 -3.362913 -8.287320 0.000000 0.000000 0.000000 
1.860437 0.941891 0.878591 -175.611435 -39.701980 170.938813 -6.967955 1.096143 -6.625633 31.747881 26.040777 46.454683 -41.130379 -20.464802 -0.415241 0.000000 0.000000 0.000000 -4.699794 3.135138 -7.576701 18.585519 11.776298 24.562829 -58.495740 -4.713300 36.616214 0.000000 0.000000 0.000000 -2.529534 2.643244 15.594640 4.623458 1.742430 -27.963033 2.763522 -8.926311 28.740022 -13.621121 -0.546243 -31.414751 0.000000 0.000000 0.000000 -26.028633 20.466472 25.367431 -54.425874 -35.380497 9.546943 -3.848056 -52.652604 7.979753 0.000000 0.000000 0.000000 2.697738 10.676535 -39.984527 54.746748 -53.256448 -38.458120 35.147973 9.621349 -4.389182 0.000000 0.000000 0.000000 
1.888437 0.950123 0.854209 -173.501895 -52.373165 170.485658 -6.216159 0.874619 -7.116737 20.740743 19.960255 37.985443 -31.425929 -19.235404 -4.156034 0.000000 0.000000 0.000000 -5.316000 2.669059 -7.613968 19.351125 10.515639 26.339640 -42.894393 -18.468644 27.280608 0.000000 0.000000 0.000000 -3.187212 2.220106 14.917504 6.669593 2.362907 -29.676816 1.376646 -6.851276 30.536023 -14.392776 -1.476593 -30.274209 0.000000 0.000000 0.000000 -23.920178 20.639913 13.421232 -55.007917 -21.201221 4.626306 -21.987327 -50.293864 18.975494 0.000000 0.000000 0.000000 4.972860 7.093254 -28.540815 62.137953 -39.439769 -35.415898 34.424640 20.272107 -2.138970 0.000000 0.000000 0.000000 
1.912907 0.950249 0.828724 -169.166333 -62.165596 167.800925 -5.404616 1.138440 -9.948156 21.434356 15.409997 36.867752 -33.535030 -25.084411 -3.693766 0.000000 0.000000 0.000000 -4.364121 2.031179 -8.808757 14.309257 9.266590 28.687138 -28.309532 -19.519577 16.445021 0.000000 0.000000 0.000000 -1.532635 1.198618 13.352259 6.405064 0.715116 -25.374705 1.022301 -1.447459 27.082392 -10.672587 -1.072928 -22.563885 0.000000 0.000000 0.000000 -24.080583 18.635378 9.710831 -49.595916 -13.493689 -1.756619 -27.452583 -46.736016 20.494305 0.000000 0.000000 0.000000 7.890489 6.980041 -21.906652 60.081078 -31.462873 -26.903814 35.061196 27.668500 -0.367195 0.000000 0.000000 0.000000 
1.933590 0.945880 0.805205 -164.614030 -73.939505 163.816664 -4.734013 1.006757 -11.628800 21.063051 12.285844 37.465309 -24.780199 -24.648942 -8.953042 0.000000 0.000000 0.000000 -6.061607 2.051035 -5.987623 10.690653 6.672568 25.947363 -24.658072 -21.208351 12.732419 0.000000 0.000000 0.000000 -1.463543 1.098878 13.592745 6.352940 0.350728 -26.620177 0.961315 0.247642 28.493332 -12.128304 -1.283774 -26.030194 0.000000 0.000000 0.000000 -28.584742 17.066462 9.968116 -44.785582 -9.791003 -6.451371 -24.266447 -45.770793 17.235520 0.000000 0.000000 0.000000 10.295393 4.587429 -17.899222 57.030949 -24.337015 -20.462986 33.912354 33.176405 1.637453 0.000000 0.000000 0.000000 
